<mxfile host="app.diagrams.net" modified="2023-11-16T20:55:31.939Z" agent="Mozilla/5.0 (Windows NT 10.0; Win64; x64) AppleWebKit/537.36 (KHTML, like Gecko) Chrome/119.0.0.0 Safari/537.36 Edg/119.0.0.0" etag="sjDM6-C0HWHWPYzRLjMG" version="22.1.2" type="device">
  <diagram name="Page-1" id="q17DKDiXmMCJJl4ZwLc4">
    <mxGraphModel dx="1340" dy="721" grid="1" gridSize="10" guides="1" tooltips="1" connect="1" arrows="1" fold="1" page="1" pageScale="1" pageWidth="2339" pageHeight="3300" math="0" shadow="0">
      <root>
        <mxCell id="0" />
        <mxCell id="1" parent="0" />
        <mxCell id="7t0NmyDC2NJlsHodAtWq-1" value="&lt;b&gt;Musician&lt;/b&gt;" style="whiteSpace=wrap;html=1;align=center;" vertex="1" parent="1">
          <mxGeometry x="190" y="290" width="100" height="40" as="geometry" />
        </mxCell>
        <mxCell id="7t0NmyDC2NJlsHodAtWq-3" value="" style="endArrow=none;html=1;rounded=0;exitX=0.5;exitY=1;exitDx=0;exitDy=0;entryX=0.25;entryY=0;entryDx=0;entryDy=0;" edge="1" parent="1" source="7t0NmyDC2NJlsHodAtWq-14" target="7t0NmyDC2NJlsHodAtWq-1">
          <mxGeometry relative="1" as="geometry">
            <mxPoint x="160" y="240" as="sourcePoint" />
            <mxPoint x="580" y="450" as="targetPoint" />
          </mxGeometry>
        </mxCell>
        <mxCell id="7t0NmyDC2NJlsHodAtWq-4" value="&lt;b&gt;address&lt;/b&gt;" style="ellipse;whiteSpace=wrap;html=1;align=center;" vertex="1" parent="1">
          <mxGeometry x="220" y="200" width="100" height="40" as="geometry" />
        </mxCell>
        <mxCell id="7t0NmyDC2NJlsHodAtWq-5" value="" style="endArrow=none;html=1;rounded=0;exitX=0.5;exitY=1;exitDx=0;exitDy=0;entryX=0.5;entryY=0;entryDx=0;entryDy=0;" edge="1" parent="1" source="7t0NmyDC2NJlsHodAtWq-4" target="7t0NmyDC2NJlsHodAtWq-1">
          <mxGeometry relative="1" as="geometry">
            <mxPoint x="175" y="264" as="sourcePoint" />
            <mxPoint x="250" y="310" as="targetPoint" />
          </mxGeometry>
        </mxCell>
        <mxCell id="7t0NmyDC2NJlsHodAtWq-6" value="&lt;b&gt;street&lt;/b&gt;&lt;span id=&quot;docs-internal-guid-22aa97f3-7fff-5628-ff60-64329fbdb07a&quot;&gt;&lt;/span&gt;&lt;span id=&quot;docs-internal-guid-22aa97f3-7fff-5628-ff60-64329fbdb07a&quot;&gt;&lt;/span&gt;" style="ellipse;whiteSpace=wrap;html=1;align=center;" vertex="1" parent="1">
          <mxGeometry x="160" y="120" width="100" height="40" as="geometry" />
        </mxCell>
        <mxCell id="7t0NmyDC2NJlsHodAtWq-7" value="" style="endArrow=none;html=1;rounded=0;exitX=0.5;exitY=1;exitDx=0;exitDy=0;" edge="1" parent="1" source="7t0NmyDC2NJlsHodAtWq-6" target="7t0NmyDC2NJlsHodAtWq-4">
          <mxGeometry relative="1" as="geometry">
            <mxPoint x="285" y="264" as="sourcePoint" />
            <mxPoint x="370" y="330" as="targetPoint" />
          </mxGeometry>
        </mxCell>
        <mxCell id="7t0NmyDC2NJlsHodAtWq-8" value="&lt;b&gt;city&lt;/b&gt;&lt;span id=&quot;docs-internal-guid-22aa97f3-7fff-5628-ff60-64329fbdb07a&quot;&gt;&lt;/span&gt;&lt;span id=&quot;docs-internal-guid-22aa97f3-7fff-5628-ff60-64329fbdb07a&quot;&gt;&lt;/span&gt;" style="ellipse;whiteSpace=wrap;html=1;align=center;" vertex="1" parent="1">
          <mxGeometry x="270" y="120" width="100" height="40" as="geometry" />
        </mxCell>
        <mxCell id="7t0NmyDC2NJlsHodAtWq-9" value="" style="endArrow=none;html=1;rounded=0;exitX=0.5;exitY=1;exitDx=0;exitDy=0;" edge="1" parent="1" source="7t0NmyDC2NJlsHodAtWq-8" target="7t0NmyDC2NJlsHodAtWq-4">
          <mxGeometry relative="1" as="geometry">
            <mxPoint x="405" y="264" as="sourcePoint" />
            <mxPoint x="377" y="201" as="targetPoint" />
          </mxGeometry>
        </mxCell>
        <mxCell id="7t0NmyDC2NJlsHodAtWq-10" value="&lt;b&gt;phone number&lt;/b&gt;&lt;span id=&quot;docs-internal-guid-22aa97f3-7fff-5628-ff60-64329fbdb07a&quot;&gt;&lt;/span&gt;&lt;span id=&quot;docs-internal-guid-22aa97f3-7fff-5628-ff60-64329fbdb07a&quot;&gt;&lt;/span&gt;" style="ellipse;whiteSpace=wrap;html=1;align=center;" vertex="1" parent="1">
          <mxGeometry x="330" y="210" width="100" height="40" as="geometry" />
        </mxCell>
        <mxCell id="7t0NmyDC2NJlsHodAtWq-11" value="" style="endArrow=none;html=1;rounded=0;exitX=0.5;exitY=1;exitDx=0;exitDy=0;entryX=0.75;entryY=0;entryDx=0;entryDy=0;" edge="1" parent="1" source="7t0NmyDC2NJlsHodAtWq-10" target="7t0NmyDC2NJlsHodAtWq-1">
          <mxGeometry relative="1" as="geometry">
            <mxPoint x="465" y="374" as="sourcePoint" />
            <mxPoint x="437" y="311" as="targetPoint" />
          </mxGeometry>
        </mxCell>
        <mxCell id="7t0NmyDC2NJlsHodAtWq-12" value="&lt;b&gt;name&lt;/b&gt;" style="ellipse;whiteSpace=wrap;html=1;align=center;" vertex="1" parent="1">
          <mxGeometry x="10" y="230" width="100" height="40" as="geometry" />
        </mxCell>
        <mxCell id="7t0NmyDC2NJlsHodAtWq-13" value="" style="endArrow=none;html=1;rounded=0;exitX=1;exitY=1;exitDx=0;exitDy=0;entryX=0;entryY=0.5;entryDx=0;entryDy=0;" edge="1" parent="1" source="7t0NmyDC2NJlsHodAtWq-12" target="7t0NmyDC2NJlsHodAtWq-1">
          <mxGeometry relative="1" as="geometry">
            <mxPoint x="110" y="285" as="sourcePoint" />
            <mxPoint x="-5" y="335" as="targetPoint" />
          </mxGeometry>
        </mxCell>
        <mxCell id="7t0NmyDC2NJlsHodAtWq-14" value="&lt;b&gt;id&lt;/b&gt;" style="ellipse;whiteSpace=wrap;html=1;align=center;fontStyle=4;" vertex="1" parent="1">
          <mxGeometry x="110" y="200" width="100" height="40" as="geometry" />
        </mxCell>
        <mxCell id="7t0NmyDC2NJlsHodAtWq-15" value="&lt;span id=&quot;docs-internal-guid-ec5396cc-7fff-41a8-6c5f-3108510f86a9&quot;&gt;&lt;/span&gt;&lt;span id=&quot;docs-internal-guid-ec5396cc-7fff-41a8-6c5f-3108510f86a9&quot;&gt;&lt;/span&gt;&lt;span id=&quot;docs-internal-guid-ec5396cc-7fff-41a8-6c5f-3108510f86a9&quot;&gt;&lt;/span&gt;&lt;b&gt;Instrument&lt;/b&gt;" style="whiteSpace=wrap;html=1;align=center;" vertex="1" parent="1">
          <mxGeometry x="760" y="290" width="100" height="40" as="geometry" />
        </mxCell>
        <mxCell id="7t0NmyDC2NJlsHodAtWq-16" value="" style="endArrow=none;html=1;rounded=0;exitX=0.5;exitY=1;exitDx=0;exitDy=0;entryX=0.25;entryY=0;entryDx=0;entryDy=0;" edge="1" parent="1" source="7t0NmyDC2NJlsHodAtWq-27" target="7t0NmyDC2NJlsHodAtWq-15">
          <mxGeometry relative="1" as="geometry">
            <mxPoint x="730" y="240" as="sourcePoint" />
            <mxPoint x="1150" y="450" as="targetPoint" />
          </mxGeometry>
        </mxCell>
        <mxCell id="7t0NmyDC2NJlsHodAtWq-17" value="&lt;b&gt;musical key&lt;/b&gt;&lt;span id=&quot;docs-internal-guid-22aa97f3-7fff-5628-ff60-64329fbdb07a&quot;&gt;&lt;/span&gt;&lt;span id=&quot;docs-internal-guid-22aa97f3-7fff-5628-ff60-64329fbdb07a&quot;&gt;&lt;/span&gt;" style="ellipse;whiteSpace=wrap;html=1;align=center;" vertex="1" parent="1">
          <mxGeometry x="820" y="200" width="100" height="40" as="geometry" />
        </mxCell>
        <mxCell id="7t0NmyDC2NJlsHodAtWq-18" value="" style="endArrow=none;html=1;rounded=0;exitX=0.5;exitY=1;exitDx=0;exitDy=0;entryX=0.5;entryY=0;entryDx=0;entryDy=0;" edge="1" parent="1" source="7t0NmyDC2NJlsHodAtWq-17" target="7t0NmyDC2NJlsHodAtWq-15">
          <mxGeometry relative="1" as="geometry">
            <mxPoint x="745" y="264" as="sourcePoint" />
            <mxPoint x="820" y="310" as="targetPoint" />
          </mxGeometry>
        </mxCell>
        <mxCell id="7t0NmyDC2NJlsHodAtWq-27" value="&lt;b&gt;name&lt;/b&gt;" style="ellipse;whiteSpace=wrap;html=1;align=center;fontStyle=4;" vertex="1" parent="1">
          <mxGeometry x="680" y="200" width="100" height="40" as="geometry" />
        </mxCell>
        <mxCell id="7t0NmyDC2NJlsHodAtWq-95" value="&lt;b&gt;Album&lt;/b&gt;" style="whiteSpace=wrap;html=1;align=center;" vertex="1" parent="1">
          <mxGeometry x="700" y="560" width="100" height="40" as="geometry" />
        </mxCell>
        <mxCell id="7t0NmyDC2NJlsHodAtWq-97" value="&lt;b&gt;album identifier&lt;/b&gt;" style="ellipse;whiteSpace=wrap;html=1;align=center;" vertex="1" parent="1">
          <mxGeometry x="620" y="660" width="100" height="40" as="geometry" />
        </mxCell>
        <mxCell id="7t0NmyDC2NJlsHodAtWq-98" value="" style="endArrow=none;html=1;rounded=0;exitX=0.5;exitY=0;exitDx=0;exitDy=0;entryX=0.159;entryY=0.965;entryDx=0;entryDy=0;entryPerimeter=0;" edge="1" parent="1" source="7t0NmyDC2NJlsHodAtWq-97" target="7t0NmyDC2NJlsHodAtWq-95">
          <mxGeometry relative="1" as="geometry">
            <mxPoint x="1075" y="619" as="sourcePoint" />
            <mxPoint x="875" y="575" as="targetPoint" />
          </mxGeometry>
        </mxCell>
        <mxCell id="7t0NmyDC2NJlsHodAtWq-100" value="" style="endArrow=none;html=1;rounded=0;exitX=0.5;exitY=0;exitDx=0;exitDy=0;entryX=0.556;entryY=0.997;entryDx=0;entryDy=0;entryPerimeter=0;" edge="1" parent="1" source="7t0NmyDC2NJlsHodAtWq-101" target="7t0NmyDC2NJlsHodAtWq-95">
          <mxGeometry relative="1" as="geometry">
            <mxPoint x="830" y="650" as="sourcePoint" />
            <mxPoint x="825" y="420" as="targetPoint" />
          </mxGeometry>
        </mxCell>
        <mxCell id="7t0NmyDC2NJlsHodAtWq-101" value="&lt;span style=&quot;border-bottom: 1px dotted&quot;&gt;&lt;b&gt;title&lt;/b&gt;&lt;/span&gt;" style="ellipse;whiteSpace=wrap;html=1;align=center;" vertex="1" parent="1">
          <mxGeometry x="730" y="660" width="100" height="40" as="geometry" />
        </mxCell>
        <mxCell id="7t0NmyDC2NJlsHodAtWq-108" value="&lt;b&gt;copyright date&lt;/b&gt;" style="ellipse;whiteSpace=wrap;html=1;align=center;" vertex="1" parent="1">
          <mxGeometry x="840" y="660" width="100" height="40" as="geometry" />
        </mxCell>
        <mxCell id="7t0NmyDC2NJlsHodAtWq-109" value="" style="endArrow=none;html=1;rounded=0;exitX=0.5;exitY=0;exitDx=0;exitDy=0;entryX=1;entryY=0.75;entryDx=0;entryDy=0;" edge="1" parent="1" source="7t0NmyDC2NJlsHodAtWq-108" target="7t0NmyDC2NJlsHodAtWq-95">
          <mxGeometry relative="1" as="geometry">
            <mxPoint x="1295" y="618" as="sourcePoint" />
            <mxPoint x="956" y="600" as="targetPoint" />
          </mxGeometry>
        </mxCell>
        <mxCell id="7t0NmyDC2NJlsHodAtWq-110" value="&lt;b&gt;Song&lt;/b&gt;" style="whiteSpace=wrap;html=1;align=center;" vertex="1" parent="1">
          <mxGeometry x="190" y="560" width="100" height="40" as="geometry" />
        </mxCell>
        <mxCell id="7t0NmyDC2NJlsHodAtWq-111" value="&lt;b&gt;author&lt;/b&gt;" style="ellipse;whiteSpace=wrap;html=1;align=center;" vertex="1" parent="1">
          <mxGeometry x="130" y="660" width="100" height="40" as="geometry" />
        </mxCell>
        <mxCell id="7t0NmyDC2NJlsHodAtWq-112" value="" style="endArrow=none;html=1;rounded=0;exitX=0.5;exitY=0;exitDx=0;exitDy=0;entryX=0.25;entryY=1;entryDx=0;entryDy=0;" edge="1" parent="1" source="7t0NmyDC2NJlsHodAtWq-111" target="7t0NmyDC2NJlsHodAtWq-110">
          <mxGeometry relative="1" as="geometry">
            <mxPoint x="565" y="619" as="sourcePoint" />
            <mxPoint x="365" y="575" as="targetPoint" />
          </mxGeometry>
        </mxCell>
        <mxCell id="7t0NmyDC2NJlsHodAtWq-113" value="" style="endArrow=none;html=1;rounded=0;exitX=0.5;exitY=0;exitDx=0;exitDy=0;entryX=0.556;entryY=0.997;entryDx=0;entryDy=0;entryPerimeter=0;" edge="1" parent="1" source="7t0NmyDC2NJlsHodAtWq-114" target="7t0NmyDC2NJlsHodAtWq-110">
          <mxGeometry relative="1" as="geometry">
            <mxPoint x="320" y="650" as="sourcePoint" />
            <mxPoint x="315" y="420" as="targetPoint" />
          </mxGeometry>
        </mxCell>
        <mxCell id="7t0NmyDC2NJlsHodAtWq-114" value="&lt;span style=&quot;border-bottom: 1px dotted&quot;&gt;&lt;b&gt;title&lt;/b&gt;&lt;/span&gt;" style="ellipse;whiteSpace=wrap;html=1;align=center;" vertex="1" parent="1">
          <mxGeometry x="260" y="660" width="100" height="40" as="geometry" />
        </mxCell>
        <mxCell id="7t0NmyDC2NJlsHodAtWq-117" value="&lt;b&gt;plays&lt;/b&gt;" style="shape=rhombus;perimeter=rhombusPerimeter;whiteSpace=wrap;html=1;align=center;" vertex="1" parent="1">
          <mxGeometry x="470" y="280" width="120" height="60" as="geometry" />
        </mxCell>
        <mxCell id="7t0NmyDC2NJlsHodAtWq-120" value="" style="shape=link;html=1;rounded=0;exitX=1;exitY=0.5;exitDx=0;exitDy=0;entryX=0;entryY=0.5;entryDx=0;entryDy=0;" edge="1" parent="1" source="7t0NmyDC2NJlsHodAtWq-117" target="7t0NmyDC2NJlsHodAtWq-15">
          <mxGeometry relative="1" as="geometry">
            <mxPoint x="540" y="360" as="sourcePoint" />
            <mxPoint x="720" y="360" as="targetPoint" />
          </mxGeometry>
        </mxCell>
        <mxCell id="7t0NmyDC2NJlsHodAtWq-121" value="&lt;b&gt;m&lt;/b&gt;" style="text;html=1;align=center;verticalAlign=middle;resizable=0;points=[];autosize=1;strokeColor=none;fillColor=none;" vertex="1" parent="1">
          <mxGeometry x="290" y="280" width="30" height="30" as="geometry" />
        </mxCell>
        <mxCell id="7t0NmyDC2NJlsHodAtWq-122" value="&lt;b&gt;m&lt;/b&gt;" style="text;html=1;align=center;verticalAlign=middle;resizable=0;points=[];autosize=1;strokeColor=none;fillColor=none;" vertex="1" parent="1">
          <mxGeometry x="730" y="280" width="30" height="30" as="geometry" />
        </mxCell>
        <mxCell id="7t0NmyDC2NJlsHodAtWq-123" value="&lt;b&gt;has&lt;/b&gt;" style="shape=rhombus;perimeter=rhombusPerimeter;whiteSpace=wrap;html=1;align=center;" vertex="1" parent="1">
          <mxGeometry x="450" y="550" width="120" height="60" as="geometry" />
        </mxCell>
        <mxCell id="7t0NmyDC2NJlsHodAtWq-126" value="" style="shape=link;html=1;rounded=0;entryX=0;entryY=0.5;entryDx=0;entryDy=0;exitX=1;exitY=0.5;exitDx=0;exitDy=0;" edge="1" parent="1" source="7t0NmyDC2NJlsHodAtWq-123" target="7t0NmyDC2NJlsHodAtWq-95">
          <mxGeometry relative="1" as="geometry">
            <mxPoint x="460" y="550" as="sourcePoint" />
            <mxPoint x="620" y="550" as="targetPoint" />
          </mxGeometry>
        </mxCell>
        <mxCell id="7t0NmyDC2NJlsHodAtWq-128" value="" style="endArrow=none;html=1;rounded=0;exitX=1;exitY=0.5;exitDx=0;exitDy=0;entryX=0;entryY=0.5;entryDx=0;entryDy=0;" edge="1" parent="1" source="7t0NmyDC2NJlsHodAtWq-110" target="7t0NmyDC2NJlsHodAtWq-123">
          <mxGeometry relative="1" as="geometry">
            <mxPoint x="460" y="550" as="sourcePoint" />
            <mxPoint x="620" y="550" as="targetPoint" />
          </mxGeometry>
        </mxCell>
        <mxCell id="7t0NmyDC2NJlsHodAtWq-129" value="&lt;b&gt;m&lt;/b&gt;" style="text;html=1;align=center;verticalAlign=middle;resizable=0;points=[];autosize=1;strokeColor=none;fillColor=none;" vertex="1" parent="1">
          <mxGeometry x="285" y="558" width="30" height="30" as="geometry" />
        </mxCell>
        <mxCell id="7t0NmyDC2NJlsHodAtWq-130" value="&lt;b&gt;1&lt;/b&gt;" style="text;html=1;align=center;verticalAlign=middle;resizable=0;points=[];autosize=1;strokeColor=none;fillColor=none;" vertex="1" parent="1">
          <mxGeometry x="670" y="550" width="30" height="30" as="geometry" />
        </mxCell>
        <mxCell id="7t0NmyDC2NJlsHodAtWq-131" value="&lt;b&gt;performs&lt;/b&gt;" style="shape=rhombus;perimeter=rhombusPerimeter;whiteSpace=wrap;html=1;align=center;" vertex="1" parent="1">
          <mxGeometry x="180" y="410" width="120" height="60" as="geometry" />
        </mxCell>
        <mxCell id="7t0NmyDC2NJlsHodAtWq-132" value="" style="shape=link;html=1;rounded=0;exitX=0.5;exitY=1;exitDx=0;exitDy=0;entryX=0.5;entryY=0;entryDx=0;entryDy=0;" edge="1" parent="1" source="7t0NmyDC2NJlsHodAtWq-131" target="7t0NmyDC2NJlsHodAtWq-110">
          <mxGeometry relative="1" as="geometry">
            <mxPoint x="239.52" y="478" as="sourcePoint" />
            <mxPoint x="240" y="530" as="targetPoint" />
          </mxGeometry>
        </mxCell>
        <mxCell id="7t0NmyDC2NJlsHodAtWq-133" value="" style="endArrow=none;html=1;rounded=0;entryX=0.5;entryY=1;entryDx=0;entryDy=0;exitX=0.5;exitY=0;exitDx=0;exitDy=0;" edge="1" parent="1" source="7t0NmyDC2NJlsHodAtWq-131" target="7t0NmyDC2NJlsHodAtWq-1">
          <mxGeometry relative="1" as="geometry">
            <mxPoint x="460" y="470" as="sourcePoint" />
            <mxPoint x="620" y="470" as="targetPoint" />
          </mxGeometry>
        </mxCell>
        <mxCell id="7t0NmyDC2NJlsHodAtWq-134" value="&lt;b&gt;m&lt;/b&gt;" style="text;html=1;align=center;verticalAlign=middle;resizable=0;points=[];autosize=1;strokeColor=none;fillColor=none;" vertex="1" parent="1">
          <mxGeometry x="240" y="330" width="30" height="30" as="geometry" />
        </mxCell>
        <mxCell id="7t0NmyDC2NJlsHodAtWq-135" value="&lt;b&gt;m&lt;/b&gt;" style="text;html=1;align=center;verticalAlign=middle;resizable=0;points=[];autosize=1;strokeColor=none;fillColor=none;" vertex="1" parent="1">
          <mxGeometry x="240" y="530" width="30" height="30" as="geometry" />
        </mxCell>
        <mxCell id="7t0NmyDC2NJlsHodAtWq-136" value="&lt;b&gt;produce&lt;/b&gt;" style="shape=rhombus;perimeter=rhombusPerimeter;whiteSpace=wrap;html=1;align=center;" vertex="1" parent="1">
          <mxGeometry x="470" y="410" width="120" height="60" as="geometry" />
        </mxCell>
        <mxCell id="7t0NmyDC2NJlsHodAtWq-137" value="" style="shape=link;html=1;rounded=0;exitX=1;exitY=1;exitDx=0;exitDy=0;entryX=0.25;entryY=0;entryDx=0;entryDy=0;" edge="1" parent="1" source="7t0NmyDC2NJlsHodAtWq-136" target="7t0NmyDC2NJlsHodAtWq-95">
          <mxGeometry relative="1" as="geometry">
            <mxPoint x="600" y="470" as="sourcePoint" />
            <mxPoint x="770" y="470" as="targetPoint" />
          </mxGeometry>
        </mxCell>
        <mxCell id="7t0NmyDC2NJlsHodAtWq-139" value="" style="endArrow=none;html=1;rounded=0;entryX=1;entryY=1;entryDx=0;entryDy=0;exitX=0;exitY=0;exitDx=0;exitDy=0;" edge="1" parent="1" source="7t0NmyDC2NJlsHodAtWq-136" target="7t0NmyDC2NJlsHodAtWq-1">
          <mxGeometry relative="1" as="geometry">
            <mxPoint x="390" y="440" as="sourcePoint" />
            <mxPoint x="390" y="360" as="targetPoint" />
          </mxGeometry>
        </mxCell>
        <mxCell id="7t0NmyDC2NJlsHodAtWq-140" value="" style="endArrow=none;html=1;rounded=0;entryX=0;entryY=0.5;entryDx=0;entryDy=0;exitX=1;exitY=0.5;exitDx=0;exitDy=0;" edge="1" parent="1" source="7t0NmyDC2NJlsHodAtWq-1" target="7t0NmyDC2NJlsHodAtWq-117">
          <mxGeometry relative="1" as="geometry">
            <mxPoint x="260" y="430" as="sourcePoint" />
            <mxPoint x="260" y="350" as="targetPoint" />
          </mxGeometry>
        </mxCell>
        <mxCell id="7t0NmyDC2NJlsHodAtWq-141" value="&lt;b&gt;1&lt;/b&gt;" style="text;html=1;align=center;verticalAlign=middle;resizable=0;points=[];autosize=1;strokeColor=none;fillColor=none;" vertex="1" parent="1">
          <mxGeometry x="305" y="318" width="30" height="30" as="geometry" />
        </mxCell>
        <mxCell id="7t0NmyDC2NJlsHodAtWq-144" value="&lt;b&gt;m&lt;/b&gt;" style="text;html=1;align=center;verticalAlign=middle;resizable=0;points=[];autosize=1;strokeColor=none;fillColor=none;" vertex="1" parent="1">
          <mxGeometry x="715" y="530" width="30" height="30" as="geometry" />
        </mxCell>
      </root>
    </mxGraphModel>
  </diagram>
</mxfile>
